<svg width="75" height="38" viewBox="0 0 75 38" fill="none" xmlns="http://www.w3.org/2000/svg">
<mask id="path-1-inside-1_2784_33214" fill="white">
<path d="M0 4C0 1.79086 1.79086 0 4 0H71C73.2091 0 75 1.79086 75 4V34C75 36.2091 73.2091 38 71 38H4C1.79086 38 0 36.2091 0 34V4Z"/>
</mask>
<path d="M0 4C0 1.79086 1.79086 0 4 0H71C73.2091 0 75 1.79086 75 4V34C75 36.2091 73.2091 38 71 38H4C1.79086 38 0 36.2091 0 34V4Z" fill="white"/>
<path d="M4 0V1H71V0V-1H4V0ZM75 4H74V34H75H76V4H75ZM71 38V37H4V38V39H71V38ZM0 34H1V4H0H-1V34H0ZM4 38V37C2.34315 37 1 35.6569 1 34H0H-1C-1 36.7614 1.23858 39 4 39V38ZM75 34H74C74 35.6569 72.6569 37 71 37V38V39C73.7614 39 76 36.7614 76 34H75ZM71 0V1C72.6569 1 74 2.34315 74 4H75H76C76 1.23858 73.7614 -1 71 -1V0ZM4 0V-1C1.23858 -1 -1 1.23858 -1 4H0H1C1 2.34315 2.34315 1 4 1V0Z" fill="#38AEE0" mask="url(#path-1-inside-1_2784_33214)"/>
<path d="M20.3333 22.3359H21.6666V19.6693H24.3333V18.3359H21.6666V15.6693H20.3333V18.3359H17.6666V19.6693H20.3333V22.3359ZM20.9999 25.6693C20.0777 25.6693 19.211 25.497 18.3999 25.1526C17.5888 24.797 16.8833 24.3193 16.2833 23.7193C15.6833 23.1193 15.2055 22.4137 14.8499 21.6026C14.5055 20.7915 14.3333 19.9248 14.3333 19.0026C14.3333 18.0804 14.5055 17.2137 14.8499 16.4026C15.2055 15.5915 15.6833 14.8859 16.2833 14.2859C16.8833 13.6859 17.5888 13.2137 18.3999 12.8693C19.211 12.5137 20.0777 12.3359 20.9999 12.3359C21.9221 12.3359 22.7888 12.5137 23.5999 12.8693C24.411 13.2137 25.1166 13.6859 25.7166 14.2859C26.3166 14.8859 26.7888 15.5915 27.1333 16.4026C27.4888 17.2137 27.6666 18.0804 27.6666 19.0026C27.6666 19.9248 27.4888 20.7915 27.1333 21.6026C26.7888 22.4137 26.3166 23.1193 25.7166 23.7193C25.1166 24.3193 24.411 24.797 23.5999 25.1526C22.7888 25.497 21.9221 25.6693 20.9999 25.6693ZM20.9999 24.3359C22.4888 24.3359 23.7499 23.8193 24.7833 22.7859C25.8166 21.7526 26.3333 20.4915 26.3333 19.0026C26.3333 17.5137 25.8166 16.2526 24.7833 15.2193C23.7499 14.1859 22.4888 13.6693 20.9999 13.6693C19.511 13.6693 18.2499 14.1859 17.2166 15.2193C16.1833 16.2526 15.6666 17.5137 15.6666 19.0026C15.6666 20.4915 16.1833 21.7526 17.2166 22.7859C18.2499 23.8193 19.511 24.3359 20.9999 24.3359Z" fill="#38AEE0"/>
<path d="M37 24L40.836 14.662H42.166L46.058 24H44.028L43.272 22.124H39.674L38.904 24H37ZM40.248 20.542H42.656L41.452 17.476L40.248 20.542ZM51.0814 24L50.9974 23.482C50.8294 23.6593 50.61 23.818 50.3394 23.958C50.0687 24.0887 49.7467 24.154 49.3734 24.154C48.8787 24.154 48.4447 24.0607 48.0714 23.874C47.698 23.6873 47.3807 23.4353 47.1194 23.118C46.8674 22.7913 46.676 22.4133 46.5454 21.984C46.4147 21.5547 46.3494 21.0927 46.3494 20.598C46.3494 20.1593 46.4194 19.73 46.5594 19.31C46.6994 18.89 46.9094 18.5167 47.1894 18.19C47.4694 17.854 47.8194 17.588 48.2394 17.392C48.6594 17.1867 49.154 17.084 49.7234 17.084C50.0874 17.084 50.4887 17.1493 50.9274 17.28V14.746L52.7474 14.466V24H51.0814ZM50.9274 18.75C50.5634 18.6193 50.2367 18.554 49.9474 18.554C49.6394 18.554 49.3687 18.61 49.1354 18.722C48.9114 18.834 48.7247 18.988 48.5754 19.184C48.426 19.3707 48.314 19.5853 48.2394 19.828C48.1647 20.0613 48.1274 20.304 48.1274 20.556C48.1274 20.8453 48.1554 21.1207 48.2114 21.382C48.2767 21.634 48.3747 21.858 48.5054 22.054C48.636 22.2407 48.7994 22.39 48.9954 22.502C49.2007 22.614 49.448 22.67 49.7374 22.67C49.9614 22.67 50.19 22.614 50.4234 22.502C50.6567 22.3807 50.8247 22.2407 50.9274 22.082V18.75ZM58.8743 24L58.7903 23.482C58.6223 23.6593 58.403 23.818 58.1323 23.958C57.8617 24.0887 57.5397 24.154 57.1663 24.154C56.6717 24.154 56.2377 24.0607 55.8643 23.874C55.491 23.6873 55.1737 23.4353 54.9123 23.118C54.6603 22.7913 54.469 22.4133 54.3383 21.984C54.2077 21.5547 54.1423 21.0927 54.1423 20.598C54.1423 20.1593 54.2123 19.73 54.3523 19.31C54.4923 18.89 54.7023 18.5167 54.9823 18.19C55.2623 17.854 55.6123 17.588 56.0323 17.392C56.4523 17.1867 56.947 17.084 57.5163 17.084C57.8803 17.084 58.2817 17.1493 58.7203 17.28V14.746L60.5403 14.466V24H58.8743ZM58.7203 18.75C58.3563 18.6193 58.0297 18.554 57.7403 18.554C57.4323 18.554 57.1617 18.61 56.9283 18.722C56.7043 18.834 56.5177 18.988 56.3683 19.184C56.219 19.3707 56.107 19.5853 56.0323 19.828C55.9577 20.0613 55.9203 20.304 55.9203 20.556C55.9203 20.8453 55.9483 21.1207 56.0043 21.382C56.0697 21.634 56.1677 21.858 56.2983 22.054C56.429 22.2407 56.5923 22.39 56.7883 22.502C56.9937 22.614 57.241 22.67 57.5303 22.67C57.7543 22.67 57.983 22.614 58.2163 22.502C58.4497 22.3807 58.6177 22.2407 58.7203 22.082V18.75Z" fill="#38AEE0"/>
</svg>
